HIERARCHY
ROOT Pelvis
{
	OFFSET 0.000000 0.000000 0.000000
	CHANNELS 6 Xposition Yposition Zposition Xrotation Yrotation Zrotation
	JOINT LeftUpLeg_virtual
	{
		OFFSET 0.000000 0.000000 0.000000
		CHANNELS 3 Xrotation Yrotation Zrotation
		JOINT LeftUpLeg
		{
			OFFSET 18.735201 -5.666702 -4.541200
			CHANNELS 3 Xrotation Yrotation Zrotation
			JOINT LeftLeg
			{
				OFFSET -0.021200 -31.938179 0.493100
				CHANNELS 3 Xrotation Yrotation Zrotation
				JOINT LeftFoot
				{
					OFFSET 0.021200 -31.938179 -4.336299
					CHANNELS 3 Xrotation Yrotation Zrotation
					JOINT LeftToeBase
					{
						OFFSET 0.943001 -26.722000 15.023500
						CHANNELS 3 Xrotation Yrotation Zrotation
						End Site
						{
							OFFSET 0 0 0
						}
					}
				}
			}
		}
	}
	JOINT RightUpLeg_virtual
	{
		OFFSET 0.000000 0.000000 0.000000
		CHANNELS 3 Xrotation Yrotation Zrotation
		JOINT RightUpLeg
		{
			OFFSET -18.735201 -5.666702 -4.541200
			CHANNELS 3 Xrotation Yrotation Zrotation
			JOINT RightLeg
			{
				OFFSET 0.018946 -31.938133 0.493100
				CHANNELS 3 Xrotation Yrotation Zrotation
				JOINT RightFoot
				{
					OFFSET -0.018946 -31.938126 -4.336299
					CHANNELS 3 Xrotation Yrotation Zrotation
					JOINT RightToeBase
					{
						OFFSET -0.943001 -26.722004 15.023500
						CHANNELS 3 Xrotation Yrotation Zrotation
						End Site
						{
							OFFSET 0 0 0
						}
					}
				}
			}
		}
	}
	JOINT Hips_virtual
	{
		OFFSET 0.000000 0.000000 0.000000
		CHANNELS 3 Xrotation Yrotation Zrotation
		JOINT Hips
		{
			OFFSET -0.000000 -0.000000 -0.000000
			CHANNELS 3 Xrotation Yrotation Zrotation
			JOINT Spine
			{
				OFFSET 0.000000 10.199997 -0.299500
				CHANNELS 3 Xrotation Yrotation Zrotation
				JOINT Spine1
				{
					OFFSET 0.000000 11.900002 -1.516600
					CHANNELS 3 Xrotation Yrotation Zrotation
					JOINT Spine2
					{
						OFFSET 0.000000 13.600006 -2.842500
						CHANNELS 3 Xrotation Yrotation Zrotation
						JOINT Neck_virtual
						{
							OFFSET 0.000000 0.000000 0.000000
							CHANNELS 3 Xrotation Yrotation Zrotation
							JOINT Neck
							{
								OFFSET 0.000000 9.624100 -2.890100
								CHANNELS 3 Xrotation Yrotation Zrotation
								JOINT Head
								{
									OFFSET 0.000000 14.068802 -1.351900
									CHANNELS 3 Xrotation Yrotation Zrotation
									End Site
									{
										OFFSET 0 0 0
									}
								}
							}
						}
						JOINT LeftShoulder_virtual
						{
							OFFSET 0.000000 0.000000 0.000000
							CHANNELS 3 Xrotation Yrotation Zrotation
							JOINT LeftShoulder
							{
								OFFSET 15.263000 10.923401 -0.547700
								CHANNELS 3 Xrotation Yrotation Zrotation
								JOINT LeftArm
								{
									OFFSET 25.438599 -2.830597 -13.032500
									CHANNELS 3 Xrotation Yrotation Zrotation
									JOINT LeftForeArm
									{
										OFFSET 29.960503 0.000000 0.000000
										CHANNELS 3 Xrotation Yrotation Zrotation
										JOINT LeftHand
										{
											OFFSET 27.849251 0.000000 0.000000
											CHANNELS 3 Xrotation Yrotation Zrotation
											End Site
											{
												OFFSET 0 0 0
											}
										}
									}
								}
							}
						}
						JOINT RightShoulder_virtual
						{
							OFFSET 0.000000 0.000000 0.000000
							CHANNELS 3 Xrotation Yrotation Zrotation
							JOINT RightShoulder
							{
								OFFSET -15.263000 10.923401 -0.547700
								CHANNELS 3 Xrotation Yrotation Zrotation
								JOINT RightArm
								{
									OFFSET -25.438599 -2.830597 -13.032500
									CHANNELS 3 Xrotation Yrotation Zrotation
									JOINT RightForeArm
									{
										OFFSET -29.960503 0.000000 0.000000
										CHANNELS 3 Xrotation Yrotation Zrotation
										JOINT RightHand
										{
											OFFSET -27.849251 0.000000 0.000000
											CHANNELS 3 Xrotation Yrotation Zrotation
											End Site
											{
												OFFSET 0 0 0
											}
										}
									}
								}
							}
						}
					}
				}
			}
		}
	}
}
MOTION
Frames: 4
Frame Time: 0.03333333
-5.383730 38.999054 72.297089 0.000000 0.000000 0.000000 17.237109 -39.814966 -5.136605 -11.637375 3.492100 0.097203 96.804415 -15.510798 -6.192080 26.395538 -14.316920 -30.002111 0.000000 0.000000 0.000000 19.454235 5.299335 1.168398 -1.935470 -6.098725 -11.427246 102.315038 6.367467 -8.418159 25.463748 11.524067 9.119263 0.000000 0.000000 0.000000 11.496603 -11.456268 0.570335 16.564821 -19.937971 -8.538157 2.995646 -1.309008 -0.558029 -0.956998 0.222074 0.484335 0.000000 0.000000 0.000000 -13.089167 0.649217 2.609767 -8.362656 1.459827 1.361436 0.000000 0.000000 0.000000 -8.416926 1.551922 -2.326177 -16.009706 0.287734 -13.431669 60.839903 -12.936201 -20.150342 39.230838 -27.947546 10.979894 0.000000 0.000000 0.000000 -9.353836 1.896942 3.693538 -17.398042 1.755138 13.965278 -5.460762 -14.034921 61.531439 -20.054959 58.678155 27.923012 0.000000 0.000000 0.000000 
-5.142785 38.804562 73.517029 0.000000 0.000000 0.000000 17.800986 -40.477395 -5.354972 -10.623580 3.371292 -0.604863 95.916039 -15.094184 -6.219366 25.701833 -13.752987 -29.499512 0.000000 0.000000 0.000000 20.112971 4.949616 1.270643 -0.972788 -6.312865 -11.309169 101.347570 6.437856 -8.519020 24.618286 11.504202 9.020478 0.000000 0.000000 0.000000 11.703433 -11.276294 0.545447 17.266874 -19.703842 -8.418571 3.494219 -1.529735 -0.380404 -0.721197 0.132900 0.601844 0.000000 0.000000 0.000000 -13.280568 0.644866 2.802683 -8.423845 1.508785 1.467812 0.000000 0.000000 0.000000 -8.177392 1.431767 -2.195531 -16.029803 0.012819 -12.906871 60.389063 -11.698948 -20.249016 38.494625 -26.207239 10.191739 0.000000 0.000000 0.000000 -8.937583 1.813571 3.876208 -17.083722 1.432344 14.358782 -7.289522 -13.625863 61.552791 -22.874426 60.650762 30.401712 0.000000 0.000000 0.000000 
-4.876924 38.631382 74.866791 0.000000 0.000000 0.000000 18.481027 -40.967020 -5.425493 -9.505335 3.267066 -1.158395 95.039152 -14.503309 -6.234867 25.099168 -13.046273 -28.805418 0.000000 0.000000 0.000000 20.859355 4.331274 1.377980 0.066912 -6.620106 -11.247185 100.851056 6.429946 -8.596587 24.111534 11.450724 8.895863 0.000000 0.000000 0.000000 11.989570 -10.954344 0.537418 18.135645 -19.337509 -8.162307 3.970625 -1.715539 -0.198932 -0.499732 0.066980 0.721306 0.000000 0.000000 0.000000 -13.476184 0.668308 2.995363 -8.488991 1.565723 1.571056 0.000000 0.000000 0.000000 -8.033395 1.301299 -2.069060 -16.133675 -0.356459 -12.433331 59.488065 -10.943508 -20.491437 37.663138 -25.099525 9.470298 0.000000 0.000000 0.000000 -8.464539 1.749197 4.040162 -16.716511 1.168105 14.662113 -7.361249 -12.162652 61.229320 -24.049265 62.656208 31.615071 0.000000 0.000000 0.000000 
-4.593137 38.404278 76.119476 0.000000 0.000000 0.000000 19.276804 -41.400317 -5.374292 -8.284530 3.158139 -1.613479 94.188964 -13.808279 -6.245413 24.543487 -12.250445 -28.005135 0.000000 0.000000 0.000000 21.621587 3.589492 1.531459 1.121858 -6.967182 -11.163495 100.417243 6.356971 -8.629588 23.670768 11.318716 8.754483 0.000000 0.000000 0.000000 12.363771 -10.533139 0.551711 19.199424 -18.925003 -7.776583 4.331953 -1.877091 -0.037556 -0.334610 0.017387 0.827919 0.000000 0.000000 0.000000 -13.637617 0.701095 3.205669 -8.536352 1.621007 1.683374 0.000000 0.000000 0.000000 -7.953179 1.167152 -1.959800 -16.293527 -0.787221 -12.042803 58.284320 -10.559818 -20.891418 36.790165 -24.435444 8.774299 0.000000 0.000000 0.000000 -7.981632 1.702137 4.154037 -16.342802 0.962162 14.758516 -5.951671 -9.818728 60.331546 -23.488133 64.717204 31.320263 0.000000 0.000000 0.000000 
